<svg xmlns="http://www.w3.org/2000/svg" version="1.1" xmlns:xlink="http://www.w3.org/1999/xlink" xmlns:svgjs="http://svgjs.dev/svgjs" viewBox="0 0 800 800" opacity="0.34"><defs><linearGradient x1="50%" y1="0%" x2="50%" y2="100%" id="wwwhirl-grad"><stop stop-color="hsla(253, 75%, 49%, 1)" stop-opacity="1" offset="45%"></stop><stop stop-color="hsla(308, 90%, 56%, 1)" stop-opacity="1" offset="100%"></stop></linearGradient></defs><g stroke-width="2" stroke="url(#wwwhirl-grad)" fill="none" stroke-linecap="round"><path d="M-440.9999996089932 485.85513739360516C-388.4374976038929 400.7038841453426 -335.87499559879257 104.44848221909587 -230.7499915885919 145.25012440055502C-125.62498757839131 186.05176658201412 -125.62498757839137 640.1917839060809 -20.499983568190714 649.0617061194416C84.62502044200994 657.9316283328023 84.62502044200994 222.71411173057163 189.7500244522107 180.72981325399775C294.87502846241136 138.74551477742386 294.87502846241136 479.350527770474 400.00003247261213 481.12451221314615C505.1250364828127 482.89849665581824 505.12503648281245 144.06746810544024 610.2500404930131 187.82575102468627C715.3750445032138 231.5840339439323 715.3750445032138 621.2692831842448 820.5000485134144 656.1576438901302C925.6250525236151 691.0460045960156 925.6250525236151 338.6144286518179 1030.750056533816 327.37919384822766C1135.8750605440166 316.1439590446374 1188.437562549117 540.257326968884 1241.0000645542173 611.2167046757694 " transform="rotate(58, 400, 400)"></path><path d="M-411.9999998855588 482.89453596357913C-361.24999794959984 400.67953282732566 -310.4999960136409 114.6398344157771 -208.99999214172306 154.03452341856524C-107.49998826980521 193.42921242135336 -107.49998826980527 631.9092291480385 -5.999984397887374 640.4732919747316C95.50001947403052 649.0373548014247 95.50001947403052 228.8273387716847 197.00002334594842 188.29077472533754C298.5000272178663 147.75421067899032 298.5000272178663 476.6142232240042 400.0000310897841 478.32703578934286C501.5000349617021 480.03984835468145 501.5000349617018 152.89264837500616 603.0000388336198 195.14202498669198C704.5000427055377 237.3914015983778 704.5000427055377 613.6392284510933 806.0000465774556 647.3245422360861C907.5000504493735 681.0098560210789 907.5000504493735 340.7310930404742 1009.0000543212914 329.88328012666295C1110.5000581932093 319.0354672128517 1161.2500601291683 535.4207879672967 1212.0000620651272 603.9332905808412 " transform="rotate(56, 400, 400)"></path><path d="M-383.00000016212437 479.9340718626547C-334.0624982953068 400.6553188384103 -285.1249964284892 124.8313239415599 -187.2499926948542 162.81905976567703C-89.37498896121912 200.80679558979415 -89.37498896121917 623.6268117190978 8.50001477241591 631.8850151591232C106.37501850605099 640.1432185991487 106.37501850605099 234.9407031418994 204.25002223968625 195.85187352577887C302.12502597332127 156.76304390965834 302.12502597332127 473.8780560066361 400.0000297069564 475.52969669464113C497.87503344059144 477.18133738264623 497.8750334405913 161.71796597367364 595.7500371742262 202.45843627779925C693.6250409078616 243.19890658192486 693.6250409078616 606.0093110470434 791.5000446414965 638.4915779111436C889.3750483751317 670.9738447752437 889.3750483751317 342.8478947582321 987.250052108767 332.3875037341998C1085.125055842402 321.92711271016753 1134.0625577092196 530.5843862948109 1183.000059576037 596.6500138150145 " transform="rotate(54, 400, 400)"></path><path d="M-354.00000043868994 476.9735772441522C-306.87499864101375 400.6310743319168 -259.74999684333756 135.02278294976458 -165.49999324798534 171.60356559521068C-71.24998965263302 208.18434824065682 -71.24998965263308 615.3443637725788 23.000013942719193 623.2967078259367C117.25001753807157 631.2490518792945 117.25001753807157 241.05403699453592 211.50002113342396 203.4129418086421C305.7500247287762 165.77184662274828 305.7500247287762 471.1418582716898 400.0000283241286 472.7323270823614C494.250031919481 474.32279589303295 494.25003191948065 170.54325305476297 588.5000355148329 209.7748170513284C682.7500391101853 249.0063810478938 682.7500391101853 598.3793631254155 777.0000427055377 629.658583068623C871.2500463008901 660.9378030118305 871.2500463008901 344.96466595841184 965.5000498962424 334.8916968241586C1059.7500534915946 324.8187276899053 1106.8750552892711 525.747954104747 1154.000057086947 589.3667065316099 " transform="rotate(52, 400, 400)"></path><path d="M-325.0000007152555 474.0130521080715C-279.6874989867207 400.6067993078452 -234.3749972581859 145.21421144039113 -143.74999380111643 180.38804090716621C-53.12499034404692 215.56187037394136 -53.12499034404698 607.0618853084818 37.50001311302253 614.708369975172C128.12501657009216 622.3548546418622 128.12501657009216 247.16734032959434 218.75002002716167 210.97397957392718C309.3750234842312 174.78061881826005 309.3750234842312 468.40563001916536 400.0000269413008 469.9349269525034C490.6250303983703 471.4642238858415 490.6250303983701 179.3685096182742 581.2500338554397 217.0911673072794C671.875037312509 254.8138249962846 671.875037312509 590.7493846862092 762.5000407695788 620.8255577085242C853.1250442266482 650.9017307308391 853.1250442266482 347.0814066410135 943.7500476837179 337.3958593965392C1034.3750511407875 327.71031215206494 1079.6875528693224 520.911491397105 1125.000054597857 582.083368730627 " transform="rotate(50, 400, 400)"></path><path d="M-296.000000991821 471.05252697199086C-252.49999933242765 400.5825242837736 -208.99999767303427 155.40563993101765 -121.99999435424752 189.17251621912175C-34.99999103546082 222.93939250722588 -34.99999103546088 598.7794068443847 52.00001228332587 606.1200321244073C139.00001560211263 613.4606574044299 139.00001560211263 253.28064366465276 226.00001892089938 218.5350173392123C313.00002223968625 183.78939101377182 313.00002223968625 465.66940176664093 400.000025558473 467.13752682264544C487.00002887725975 468.60565187864995 487.00002887725964 188.1937661817854 574.0000321960463 224.40751756323039C661.0000355148331 260.62126894467536 661.0000355148331 583.1194062470031 748.0000388336198 611.9925323484254C835.0000421524066 640.8656584498478 835.0000421524066 349.19814732361516 922.0000454711933 339.9000219689198C1009.0000487899802 330.60189661422453 1052.5000504493737 516.075028689463 1096.000052108767 574.800030929644 " transform="rotate(48, 400, 400)"></path><path d="M-267.0000012683866 468.0919865771211C-225.3124996781346 400.5582340009129 -183.6249980878826 165.59705316285513 -100.24999490737866 197.95697627228824C-16.874991726874782 230.31689938172136 -16.874991726874782 590.4969131214984 66.50001145362921 597.5316790148536C149.8750146341332 604.5664449082085 149.8750146341332 259.3939317409221 233.2500178146372 226.09603984570833C316.6250209951412 192.79814795049455 316.6250209951412 462.93315825532744 400.0000241756452 464.34011143399846C483.3750273561492 465.7470646126694 483.37502735614885 197.01900748650758 566.7500305366528 231.72385256039234C650.125033717157 266.4286976342771 650.125033717157 575.4894125490077 733.500036897661 603.1594917295375C816.8750400781648 630.8295709100673 816.8750400781648 351.3148727474278 900.2500432586687 342.40416928251136C983.6250464391728 333.49346581759505 1025.312548029425 511.2385507230319 1067.000049619677 567.5166778698722 " transform="rotate(46, 400, 400)"></path><path d="M-238.00000154495217 465.13144618225135C-198.12500002384155 400.5339437180522 -158.24999850273096 175.78846639469262 -78.49999546050981 206.7414363254547C1.2500075817113725 237.6944062562168 1.2500075817113157 582.2144193986123 81.00001062393255 588.9433259052998C160.75001366615373 595.6722324119871 160.75001366615373 265.50721981719147 240.50001670837491 233.65706235220438C320.25001975059615 201.80690488721729 320.25001975059615 460.19691474401395 400.0000227928174 461.5426960453514C479.7500258350385 462.8884773466889 479.7500258350384 205.84424879122975 559.5000288772596 239.0401875575543C639.2500319194808 272.23612632387886 639.2500319194808 567.8594188510125 719.0000349617021 594.3264511106497C798.7500380039232 620.7934833702868 798.7500380039232 353.43159817124035 878.5000410461444 344.90831659610296C958.2500440883657 336.3850350209656 998.1250456094763 506.4020727566009 1038.0000471305868 560.2333248101002 " transform="rotate(44, 400, 400)"></path><path d="M-209.00000182151774 462.1709363049598C-170.9375003695485 400.50968395276965 -132.87499891757932 185.97991014410823 -56.749996013640924 215.52592689619934C19.375006890297414 245.07194364829041 19.375006890297414 573.9319561933044 95.50000979423584 580.3550033133242C171.62501269817426 586.7780504333439 171.62501269817426 271.6205384110389 247.75001560211263 241.21811537627855C323.8750185060511 210.81569234151812 323.8750185060511 457.46070175027853 400.0000214099896 458.7453111742825C476.12502431392795 460.0299205982865 476.1250243139277 214.66952061353 552.2500272178662 246.3565530722944C628.3750301218046 278.04358553105874 628.3750301218046 560.2294556705954 704.500033025743 585.49344100934C780.6250359296814 610.7574263480846 780.6250359296814 355.54835411263105 856.7500388336198 347.4124944272726C932.8750417375584 339.2766347419142 970.9375431895276 501.5656253077479 1009.0000446414967 552.9500022679063 " transform="rotate(42, 400, 400)"></path><path d="M-180.00000209808329 459.2104569452463C-143.75000071525545 400.4854547050652 -107.49999933242765 196.17138441110194 -34.99999656677204 224.31044798452206C37.50000619888351 252.44951155794212 37.50000619888351 565.6495235055745 110.00000896453912 571.7667112389266C182.50001173019479 577.8838989722788 182.50001173019479 277.73388752246456 255.00001449585045 248.7791989179308C327.50001726150606 219.8245103133971 327.50001726150606 454.72451927412135 400.00002002716167 455.9479568207918C472.5000227928174 457.1713943674622 472.50002279281716 223.4948229534084 545.0000255584728 253.67294910461257C617.5000283241285 283.85107525581674 617.5000283241285 552.5995230077565 690.0000310897841 576.6604614256083C762.5000338554396 600.7213998434603 762.5000338554396 357.66514057159986 835.0000366210954 349.91670277602043C907.500039386751 342.168264980441 943.7500407695788 496.7292083764731 980.0000421524066 545.6667102432906 " transform="rotate(40, 400, 400)"></path><path d="M-151.00000237464886 456.24993943856015C-116.56250106096242 400.46118731038814 -82.12499974727598 206.36282053112302 -13.249997119903156 233.09493092587212C55.625005507469666 259.8270413206212 55.62500550746961 557.367052670872 124.50000813484246 563.1783810175565C193.3750107622153 568.9897093642411 193.3750107622153 283.8471984869175 262.25001338958816 256.3402443126105C331.1250160169611 228.83329013830343 331.1250160169611 451.98829865099145 400.000018644334 453.1505643203284C468.8750212717067 454.3128299896653 468.8750212717066 232.32008714631417 537.7500238990795 260.9893069899581C606.6250265264523 289.6585268336021 606.6250265264523 544.9695521979447 675.5000291538253 567.8274436949041C744.375031781198 590.6853351918635 744.375031781198 359.781888883596 813.2500344085709 352.42087297779557C882.1250370359437 345.0598570719951 916.5625383496301 491.8927532982256 951.0000396633166 538.3833800717023 " transform="rotate(38, 400, 400)"></path><path d="M-122.00000265121442 453.2893685261123C-89.37500140666938 400.43686650994937 -56.75000016212434 216.55420324538238 8.5000023269657 241.87936046146046C73.75000481605571 267.20451767753855 73.75000481605571 549.0845284304077 139.0000073051458 554.5899973904246C204.25000979423584 560.0954663504416 204.25000979423584 289.9604560456087 269.50001228332593 263.90123630152834C334.7500147724161 237.842016557448 334.7500147724161 449.25202462209984 400.00001726150606 450.3531184141033C465.25001975059615 451.4542122061066 465.2500197505959 241.1452979334582 530.5000222396861 268.30561146954193C595.7500247287762 295.4659250056257 595.7500247287762 537.3395279823715 661.0000272178663 558.9943725584383C726.2500297069564 580.649217134505 726.2500297069564 361.89858378983047 791.5000321960464 354.924989773809C856.7500346851366 347.9513957577875 889.3750359296814 487.05624481421637 922.0000371742265 531.0999964943521 " transform="rotate(36, 400, 400)"></path><path d="M-93.00000292777997 450.3288739076097C-62.187501752376335 400.4126220034558 -31.375000576972667 226.74566225358706 30.250001773834583 250.66386629099412C91.8750041246418 274.5820703284012 91.8750041246418 540.8020804838886 153.50000647544908 546.0016900572381C215.12500882625642 551.2012996305874 215.12500882625642 296.07378989824525 276.7500111770637 271.4623045843916C338.37501352787103 246.85081927053793 338.37501352787103 446.51582688715354 400.00001587867837 447.5557488018234C461.6250182294856 448.59567071649326 461.6250182294855 249.97058501454757 523.2500205802927 275.6219922430711C584.8750229311 301.27339947159464 584.8750229311 529.7095800607433 646.5000252819073 550.1613777159175C708.1250276327146 570.6131753710918 708.1250276327146 364.0153549900103 769.7500299835219 357.4291828637678C831.3750323343291 350.8430107375252 862.1875335097329 482.2198126241525 893.0000346851366 523.8166892109474 " transform="rotate(34, 400, 400)"></path><path d="M-64.00000320434553 447.36836403031816C-35.000002098083286 400.3883622381733 -6.000000991821025 236.93710600300267 52.00000122070344 259.4483568617387C110.0000034332279 281.9596077204748 110.0000034332279 532.5196172785807 168.00000564575237 537.4133674652624C226.00000785827694 542.3071176519442 226.00000785827694 302.1871084920927 284.0000100708014 279.02335760846574C342.00001228332593 255.85960672483878 342.00001228332593 443.7796138934182 400.00001449585045 444.7583639307545C458.00001670837503 445.73711396809085 458.0000167083748 258.79585683684786 516.0000189208994 282.93835775781116C574.0000211334238 307.08085867877446 574.0000211334238 522.0796168803263 632.0000233459484 541.3283676146078C690.0000255584729 560.5771183488894 690.0000255584729 366.132110931401 748.0000277709975 359.93336069493745C806.0000299835219 353.73461045847387 835.0000310897843 477.38336517529956 864.0000321960464 516.5333666687536 " transform="rotate(32, 400, 400)"></path><path d="M-35.000003480911104 444.4078083766593C-7.812502443790237 400.36405669652356 19.374998593330645 247.1285039760511 73.75000066757232 268.2328016561161C128.12500274181403 289.3370993361812 128.125002741814 524.2371082969055 182.5000048160557 528.8249990969196C236.87500689029747 533.4128898969337 236.87500689029747 308.300381309573 291.2500089645392 286.5843648561727C345.62501103878094 264.8683484027724 345.62501103878094 441.04335512331556 400.00001311302265 441.96093328331847C454.37501518726435 442.87851144332126 454.37501518726424 267.6210828827809 508.75001726150595 290.25467749618406C563.1250193357478 312.88827210958715 563.1250193357478 514.4496079235419 617.5000214099895 532.495311736931C671.8750234842312 550.5410155503198 671.8750234842312 368.24882109642454 726.2500255584729 362.43749274973993C780.6250276327147 356.6261644030553 807.8125286698356 472.54687195007944 835.0000297069564 509.2499983501925 " transform="rotate(30, 400, 400)"></path><path d="M-6.000003757476662 441.44726798178954C19.374997210502812 400.3397664136628 44.74999817848229 257.3199172078886 95.5000001144412 277.0172617092826C146.25000205040013 296.71460621067666 146.2500020504001 515.9546145740193 197.00000398635905 520.2366459873658C247.750005922318 524.5186774007124 247.750005922318 314.41366938584235 298.50000785827694 294.14538736266877C349.2500097942359 273.8771053394952 349.2500097942359 438.30711161200213 400.0000117301948 439.16351789467143C450.7500136661538 440.0199241773407 450.75001366615356 276.4463241875031 501.5000156021126 297.57101249334596C552.2500175380716 318.6957007991889 552.2500175380716 506.8196142255467 603.0000194740305 523.662271118043C653.7500214099895 540.5049280105395 653.7500214099895 370.3655465202371 704.5000233459484 364.9416400633315C755.2500252819074 359.51773360642585 780.6250262498869 467.7103939836484 806.0000272178663 501.9666452904206 " transform="rotate(28, 400, 400)"></path><path d="M23.00000359535231 438.4867657338925C46.56250449419039 400.3155142777748 70.12500539302849 267.5113685866987 117.2500071907046 285.8017599094218C164.37500898838076 304.09215123214483 164.37500898838073 507.67215899810583 211.50001078605686 511.64833102478474C258.62501258373305 515.6245030514636 258.62501258373305 320.52699560908434 305.75001438140924 301.7064480161375C352.8750161790854 282.88590042319055 352.8750161790854 435.5709062476613 400.00001797676157 436.3661406529971C447.12501977443776 437.16137505833285 447.12501977443753 285.2716036391979 494.2500215721137 304.88738563748063C541.3750233697899 324.5031676357633 541.3750233697899 499.18965867452414 588.5000251674661 514.829268646128C635.6250269651423 530.4688786177317 635.6250269651423 372.4823100910223 682.7500287628185 367.4458255238957C729.8750305604946 362.40934095676903 753.4375314593328 462.8739541641899 777.0000323581708 494.68333037762136 " transform="rotate(26, 400, 400)"></path><path d="M52.00000331878674 435.52624822720634C73.75000414848344 400.29124688309776 95.50000497818013 277.70280470671975 139.0000066375735 294.58624285077184C182.50000829696685 311.4696809948239 182.50000829696683 499.38968816340326 226.0000099563602 503.0600008034146C269.5000116157536 506.73031344342587 269.5000116157536 326.6403065735373 313.00001327514696 309.2674934108171C356.5000149345404 291.89468024809685 356.5000149345404 432.8346856245314 400.00001659393376 433.56874815253366C443.50001825332714 434.3028106805359 443.5000182533271 294.0968678321036 487.0000199127204 312.20374352282613C530.5000215721138 330.31061921354865 530.5000215721138 491.5596878647125 574.0000232315072 505.9962509154236C617.5000248909006 520.4328139661349 617.5000248909006 374.5990584030185 661.0000265502939 369.9499957256709C704.5000282096873 365.3009330483232 726.2500290393841 458.03749908594244 748.0000298690808 487.4000002060329 " transform="rotate(24, 400, 400)"></path><path d="M81.00000304222118 432.5657307205202C100.93750380277649 400.26697948842065 120.8750045633318 287.8942408267408 160.75000608444236 303.3707257921219C200.62500760555295 318.8472107575029 200.62500760555292 491.1072173287007 240.50000912666354 494.47167058204445C280.37501064777416 497.8361238353881 280.37501064777416 332.7536175379903 320.2500121688847 316.8285388054967C360.12501368999534 300.9034600730032 360.12501368999534 430.0984650014015 400.00001521110596 430.77135565207027C439.8750167322165 431.444246302739 439.87501673221647 302.9221320250094 479.7500182533271 319.5201014081717C519.6250197744376 336.11807079133393 519.6250197744376 483.9297170549008 559.5000212955483 497.1632331847194C599.3750228166589 510.39674931453794 599.3750228166589 376.7158067150147 639.2500243377694 372.454165927446C679.1250258588801 368.1925251398773 699.0625266194354 453.201044007695 719.0000273799907 480.1166700344446 " transform="rotate(22, 400, 400)"></path><path d="M110.00000276565562 429.60520558443955C128.12500345706954 400.242704464349 146.25000414848344 298.0856693173674 182.50000553131125 312.15520110407743C218.75000691413902 326.2247328907875 218.75000691413902 482.82473886460366 255.00000829696683 485.8833327312797C291.25000967979463 488.9419265979558 291.25000967979463 338.8669208730487 327.5000110626225 324.3895765707818C363.7500124454503 309.91223226851497 363.7500124454503 427.3622367488771 400.0000138282781 427.9739555222123C436.25001521110596 428.5856742955475 436.25001521110585 311.7473885885206 472.50001659393365 326.8364516641227C508.7500179767615 341.9255147397248 508.7500179767615 476.29973861569465 545.0000193595893 488.3302078246206C581.2500207424171 500.36067703354655 581.2500207424171 378.83254739761634 617.500022125245 374.9583284998266C653.7500235080728 371.0841096020369 671.8750241994867 448.3645813000529 690.0000248909006 472.8333322334617 " transform="rotate(20, 400, 400)"></path><path d="M139.00000248909006 426.6446880777534C155.31250311136256 400.21843706967195 171.62500373363508 308.27710543738846 204.25000497818013 320.9396840454275C236.87500622272512 333.60226265346654 236.87500622272512 474.5422680299011 269.50000746727017 477.2950025099096C302.1250087118152 480.04773698991806 302.1250087118152 344.9802318375016 334.75000995636026 331.95062196546144C367.3750112009053 318.92101209342127 367.3750112009053 424.6260161257472 400.0000124454503 425.1765630217489C432.62501368999534 425.72710991775057 432.6250136899952 320.57265278142637 465.25001493454033 334.15280954946826C497.8750161790854 347.7329663175101 497.8750161790854 468.669767805883 530.5000174236304 479.4971900939164C563.1250186681755 490.32461238194975 563.1250186681755 380.9492957096125 595.7500199127205 377.46249870160176C628.3750211572656 373.975701693591 644.687521779538 443.52812622180545 661.0000224018105 465.55000206187333 " transform="rotate(18, 400, 400)"></path><path d="M167.99998695373543 423.6841705710673C182.49998750686655 400.19416967499484 196.9999880599977 318.46854155740954 225.99998916625992 329.72416698677756C254.99999027252215 340.9797924161456 254.99999027252215 466.25979719519853 283.9999913787844 468.7066722885394C312.9999924850467 471.1535473818803 312.9999924850467 351.0935428019546 341.9999935913089 339.5116673601411C370.9999946975712 327.9297919183276 370.9999946975712 421.8897955026173 399.99999580383343 422.37917052128546C428.9999969100957 422.86854553995363 428.9999969100956 329.39791697433213 457.9999980163579 341.4691674348138C486.9999991226201 353.54041789529543 486.9999991226201 461.03979699607135 516.0000002288824 470.6641723632121C545.0000013351446 480.2885477303529 545.0000013351446 383.0660440216087 574.0000024414069 379.9666689033769C603.0000035476692 376.86729378514514 617.5000041008004 438.691671143558 632.0000046539315 458.266671890285 " transform="rotate(16, 400, 400)"></path><path d="M196.9999866771699 420.72364924968383C209.6874871611596 400.16989846562046 222.37498764514936 328.65997386273335 247.7499886131288 338.50864611343036C273.12498958110825 348.3573183641274 273.12498958110825 457.9773225457987 298.4999905490877 460.118338252472C323.8749915170672 462.25935395914524 323.8749915170672 357.20684995171024 349.2499924850467 347.07270894012345C374.62499345302615 336.93856792853666 374.62499345302615 419.1535710647901 399.99999442100557 419.5817742061248C425.3749953889851 420.0099773474594 425.374995388985 338.2231773525406 450.7499963569645 348.78552150546204C476.124997324944 359.3478656583835 476.124997324944 453.4098223715624 501.49999829292346 461.83115081781057C526.874999260903 470.2524792640588 526.874999260903 385.1827885189076 552.2500002288824 382.47083529045483C577.6250011968618 379.758882062002 590.3125016808517 433.85521225061325 603.0000021648414 450.98333790399937 " transform="rotate(14, 400, 400)"></path><path d="M226.00000165939338 417.76312792830043C236.8750020742417 400.14562725624614 247.75000248909006 338.85140616805717 269.50000331878675 347.29312524008316C291.2500041484834 355.7348443121092 291.2500041484834 449.69484789639887 313.0000049781801 451.53000421640456C334.7500058078768 453.3651605364102 334.7500058078768 363.32015710146595 356.5000066375735 354.6337505201058C378.25000746727017 345.9473439387457 378.25000746727017 416.41734662696297 400.0000082969669 416.7843778909641C421.7500091266636 417.1514091549652 421.75000912666354 347.0484377307491 443.5000099563602 356.10187557611033C465.2500107860569 365.1553134214716 465.2500107860569 445.7798477470535 487.0000116157536 452.9981292724091C508.7500124454503 460.2164107977647 508.7500124454503 387.2995330162065 530.500013275147 384.9750016775327C552.2500141048437 382.6504703388589 563.1250145196921 429.0187533576685 574.0000149345403 443.70000391771373 " transform="rotate(12, 400, 400)"></path><path d="M255.0000013828278 414.80260660691704C264.06250172853476 400.12135604687177 273.1250020742417 349.0428384733809 291.2500027656556 356.07760436673595C309.3750034570695 363.112370260091 309.3750034570695 441.4123732469991 327.5000041484834 442.94167018033716C345.6250048398973 444.47096711367516 345.6250048398973 369.4334642512216 363.7500055313112 362.1947921000882C381.8750062227251 354.9561199489548 381.8750062227251 413.6811221891358 400.000006914139 413.9869815758034C418.125007605553 414.292840962471 418.1250076055529 355.87369810895757 436.2500082969668 363.4182296467586C454.3750089883807 370.96276118455967 454.3750089883807 438.1498731225446 472.50000967979463 444.1651077270076C490.62501037120853 450.18034233147057 490.62501037120853 389.4162775135054 508.7500110626225 387.4791680646106C526.8750117540364 385.54205861571575 535.9375120997433 424.1822944647237 545.0000124454502 436.41666993142815 " transform="rotate(10, 400, 400)"></path><path d="M284.00000110626223 411.84208528553364C291.2500013828278 400.0970848374974 298.5000016593934 359.23427077870474 313.00000221252446 364.8620834933888C327.5000027656556 370.4898962080728 327.5000027656556 433.12989859759927 342.00000331878675 434.3533361442697C356.5000038719179 435.5767736909402 356.5000038719179 375.54677140097726 371.000004425049 369.7558336800705C385.50000497818013 363.9648959591638 385.50000497818013 410.94489775130864 400.0000055313112 411.18958526064273C414.50000608444236 411.4342727699768 414.50000608444236 364.69895848716607 429.0000066375735 370.7345837174069C443.5000071907046 376.7702089476477 443.5000071907046 430.5198984980357 458.00000774383574 435.3320861816061C472.5000082969668 440.14427386517644 472.5000082969668 391.53302201080436 487.00000885009797 389.98333445168845C501.5000094032291 388.4336468925726 508.75000967979474 419.345835571779 516.0000099563603 429.1333359451425 " transform="rotate(8, 400, 400)"></path><path d="M313.00000082969666 408.8815658714989C318.43750103712085 400.0728155354717 323.87500124454505 369.4257049913772 334.7500016593934 373.64656452739024C345.6250020742417 377.86742406340323 345.6250020742417 424.84742585554807 356.50000248909004 425.7650040155509C367.37500290393837 426.68258217555376 367.37500290393837 381.6600804580816 378.25000331878675 377.31687716740157C389.1250037336351 372.9736738767215 389.1250037336351 408.2086752208301 400.0000041484834 408.3921908528307C410.8750045633318 408.57570648483124 410.8750045633318 373.5242207727232 421.7500049781801 378.0509396954038C432.62500539302846 382.57765861808446 432.62500539302846 422.8899257808754 443.5000058078768 426.49906654355317C454.3750062227251 430.10820730623095 454.3750062227251 393.6497684154519 465.2500066375735 392.48750274611496C476.12500705242184 391.3252370767781 481.56250725984603 414.5093785861829 487.00000746727017 421.8500038662055 " transform="rotate(6, 400, 400)"></path><path d="M342.00000055313114 405.9210388280695C345.6250006914139 400.04853860405143 349.25000082969666 379.6171315746551 356.50000110626223 382.43103793199714C363.7500013828278 385.2449442893391 363.7500013828278 416.5649454841024 371.0000016593934 417.17666425743755C378.25000193595895 417.7883830307728 378.25000193595895 387.77338188579137 385.50000221252446 384.877913025338C392.7500024890901 381.9824441648846 392.7500024890901 405.47244506095706 400.0000027656556 405.5947888156241C407.2500030422212 405.71713257029114 407.2500030422212 382.34947542888574 414.50000331878675 385.36728804400616C421.75000359535227 388.3851006591266 421.75000359535227 415.25994543432057 429.0000038719179 417.6660392761058C436.2500041484834 420.072133117891 436.2500041484834 395.76650719070494 443.500004425049 394.991663411147C450.75000470161456 394.21681963158903 454.3750048398974 409.6729139711922 458.00000497818013 414.566664157874 " transform="rotate(4, 400, 400)"></path><path d="M371.0000002765656 402.9605213213834C372.81250034570695 400.0242712093743 374.62500041484833 389.8085676946762 378.25000055313114 391.2155208733472C381.8750006914139 392.6224740520182 381.8750006914139 408.28247464939983 385.50000082969666 408.5883340360674C389.1250009679795 408.89419342273504 389.1250009679795 393.88669285024434 392.75000110626223 392.4389584200176C396.37500124454505 390.99122398979097 396.37500124454505 402.73622443782716 400.0000013828278 402.79739631516065C403.62500152111056 402.8585681924942 403.62500152111056 391.1747396217915 407.2500016593934 392.6836459293517C410.87500179767613 394.1925522369119 410.87500179767613 407.6299746245089 414.50000193595895 408.8330215454015C418.1250020742417 410.0360684662941 418.1250020742417 397.8832555027011 421.75000221252446 397.4958336129221C425.3750023508073 397.10841172314315 427.1875024199487 404.83645889294473 429.0000024890901 407.28333398628564 " transform="rotate(2, 400, 400)"></path></g></svg>